<svg xmlns="http://www.w3.org/2000/svg" width="24" height="24" viewBox="0 0 24 24">
    <path fill="currentColor" fill-rule="evenodd" d="M4.824 11.004h3.384l0.504 0.012a2.4 2.4 0 0 1 1.02 0.3 2.4 2.4 0 0 1 0.96 0.96 2.4 2.4 0 0 1 0.3 1.008l0.012 0.504V19.2l-0.012 0.504a2.4 2.4 0 0 1 -0.3 1.02 2.4 2.4 0 0 1 -0.96 0.96 2.4 2.4 0 0 1 -1.008 0.3l-0.516 0.012H4.8l-0.504 -0.012a2.4 2.4 0 0 1 -1.008 -0.3 2.4 2.4 0 0 1 -0.96 -0.96 2.4 2.4 0 0 1 -0.3 -1.008Q2.004 19.416 2.004 19.2v-5.412l0.012 -0.504a2.4 2.4 0 0 1 0.3 -1.008 2.4 2.4 0 0 1 0.96 -0.96 2.4 2.4 0 0 1 1.008 -0.3L4.8 11.004zm-0.756 2.256q-0.084 0.132 -0.072 0.564v5.352c0 0.3 0 0.456 0.06 0.564a0.48 0.48 0 0 0 0.192 0.192c0.108 0.06 0.264 0.06 0.564 0.06H8.16q0.42 0.012 0.564 -0.06a0.48 0.48 0 0 0 0.192 -0.192c0.084 -0.108 0.084 -0.264 0.084 -0.564v-5.352q0.012 -0.42 -0.06 -0.564a0.48 0.48 0 0 0 -0.192 -0.192c-0.12 -0.072 -0.264 -0.072 -0.576 -0.072H4.824c-0.3 0 -0.456 0 -0.564 0.06a0.48 0.48 0 0 0 -0.192 0.192M4.824 2.004h3.384l0.504 0.012a2.4 2.4 0 0 1 1.02 0.3 2.4 2.4 0 0 1 0.96 0.96 2.4 2.4 0 0 1 0.3 1.008l0.012 0.504V7.2L10.992 7.704a2.4 2.4 0 0 1 -0.3 1.02 2.4 2.4 0 0 1 -0.96 0.96 2.4 2.4 0 0 1 -1.008 0.3L8.22 9.996H4.812L4.308 9.984A2.4 2.4 0 0 1 3.3 9.684a2.4 2.4 0 0 1 -0.96 -0.96A2.4 2.4 0 0 1 2.04 7.716Q1.992 7.404 2.004 7.2V4.788L2.016 4.284A2.4 2.4 0 0 1 2.316 3.276a2.4 2.4 0 0 1 0.96 -0.96 2.4 2.4 0 0 1 1.008 -0.3L4.8 2.004zM4.068 4.26Q3.984 4.404 3.996 4.824v2.352Q3.984 7.608 4.056 7.74a0.48 0.48 0 0 0 0.192 0.192c0.12 0.072 0.276 0.072 0.576 0.072h3.348c0.3 0 0.456 0 0.564 -0.06A0.48 0.48 0 0 0 8.928 7.752C9 7.632 9 7.476 9 7.176V4.824C9 4.524 9 4.368 8.94 4.26A0.48 0.48 0 0 0 8.748 4.068C8.628 3.996 8.484 3.996 8.172 3.996H4.824c-0.3 0 -0.456 0 -0.564 0.06a0.48 0.48 0 0 0 -0.192 0.192m11.76 8.748h3.384l0.504 -0.012a2.4 2.4 0 0 0 1.02 -0.3 2.4 2.4 0 0 0 0.96 -0.96 2.4 2.4 0 0 0 0.3 -1.008l0.012 -0.504V4.8L21.996 4.296a2.4 2.4 0 0 0 -0.3 -1.008 2.4 2.4 0 0 0 -0.96 -0.96 2.4 2.4 0 0 0 -1.008 -0.3Q19.416 2.004 19.2 2.004h-3.408l-0.504 0.012a2.4 2.4 0 0 0 -1.008 0.3 2.4 2.4 0 0 0 -0.96 0.96 2.4 2.4 0 0 0 -0.3 1.008Q12.984 4.596 12.996 4.8v5.412l0.012 0.504a2.4 2.4 0 0 0 0.3 1.02 2.4 2.4 0 0 0 0.96 0.96 2.4 2.4 0 0 0 1.008 0.3l0.504 0.012zM15.072 10.74C15 10.632 15 10.476 15 10.176V4.824c0 -0.3 0 -0.456 0.06 -0.564a0.48 0.48 0 0 1 0.192 -0.192c0.12 -0.072 0.264 -0.072 0.576 -0.072h3.348c0.3 0 0.456 0 0.564 0.06a0.48 0.48 0 0 1 0.192 0.192c0.06 0.108 0.06 0.264 0.06 0.564v5.352c0 0.3 0 0.456 -0.06 0.564a0.48 0.48 0 0 1 -0.192 0.192c-0.108 0.06 -0.264 0.06 -0.564 0.06h-3.348Q15.408 10.992 15.264 10.92a0.48 0.48 0 0 1 -0.192 -0.192m0.756 11.268h3.384l0.504 -0.012a2.4 2.4 0 0 0 1.02 -0.3 2.4 2.4 0 0 0 0.96 -0.96 2.4 2.4 0 0 0 0.3 -1.008l0.012 -0.504V16.8l-0.012 -0.504a2.4 2.4 0 0 0 -0.3 -1.008 2.4 2.4 0 0 0 -0.96 -0.96 2.4 2.4 0 0 0 -1.008 -0.3q-0.312 -0.024 -0.528 -0.024h-3.408l-0.504 0.012a2.4 2.4 0 0 0 -1.008 0.3 2.4 2.4 0 0 0 -0.96 0.96 2.4 2.4 0 0 0 -0.3 1.008l-0.012 0.504V19.2l0.012 0.504a2.4 2.4 0 0 0 0.3 1.02 2.4 2.4 0 0 0 0.96 0.96 2.4 2.4 0 0 0 1.008 0.3l0.504 0.012zm-0.756 -2.256q-0.096 -0.132 -0.072 -0.564v-2.352c0 -0.3 0 -0.456 0.06 -0.564a0.48 0.48 0 0 1 0.192 -0.192q0.132 -0.072 0.564 -0.06h3.348q0.42 -0.012 0.564 0.06a0.48 0.48 0 0 1 0.192 0.192c0.06 0.108 0.06 0.264 0.06 0.564v2.352q0.012 0.432 -0.06 0.564a0.48 0.48 0 0 1 -0.192 0.192q-0.144 0.072 -0.564 0.06h-3.348q-0.42 0.012 -0.564 -0.06a0.48 0.48 0 0 1 -0.192 -0.192" clip-rule="evenodd"/>
</svg>
