<svg xmlns="http://www.w3.org/2000/svg" width="24" height="24" viewBox="0 0 24 24">x<path d="M7.888 5.853h.681l.588-.001h.479l1.359-.001h.148l1.186-.001 1.22-.001.684-.001h.88c.807-.003 1.521.124 2.124.7.299.302.484.669.63 1.064l.036.095.052.138q.045.121.094.241.058.145.113.294.108.286.221.571l.068.173.198.5.056.14.067.17.03.075.026.065a.2.2 0 0 1 .016.098c.194-.034.342-.077.469-.234.086-.134.108-.273.124-.429.02-.078.048-.108.11-.157.094-.018.129-.008.208.045.084.121.058.229.037.369-.07.246-.197.493-.419.628a.9.9 0 0 1-.318.106c.129.267.31.498.486.734.314.422.569.825.574 1.368l.001.068q.004.354.005.707l.003.334q.003.203.003.406 0 .077.002.153c.011.705-.224 1.259-.701 1.768-.059.061-.113.11-.184.157-.01.06-.01.06-.008.132v.084l.001.091v.094q-.002.2 0 .399l-.001.244.001.137a.95.95 0 0 1-.269.696.86.86 0 0 1-.593.216l-.056.001-.183.001h-.064l-.333.001-.342.003-.265.001-.126.001c-.306.004-.53-.032-.769-.242-.37-.396-.253-.888-.253-1.413H7.406v.914c-.106.317-.186.497-.467.659-.201.095-.411.081-.629.08h-.128l-.268-.001h-.731c-.296.001-.532-.012-.757-.226-.225-.237-.264-.444-.256-.768l.001-.141q.001-.172.005-.345c.03-.378.03-.378-.088-.717a1 1 0 0 0-.221-.159 1.8 1.8 0 0 1-.328-.445l-.041-.074c-.29-.564-.258-1.178-.254-1.795v-.69c-.001-.387.034-.776.224-1.12l.036-.066c.107-.191.234-.367.363-.543.284-.354.284-.354.492-.75l-.052-.019c-.231-.098-.358-.283-.466-.502a.94.94 0 0 1-.045-.487c.054-.07.076-.091.164-.104.08.012.107.023.164.081.02.076.02.076.032.166.032.187.083.343.235.466a2 2 0 0 0 .156.093l.028-.088q.07-.204.152-.404l.068-.173.019-.047.283-.724c.17-.437.17-.437.247-.626l.067-.167.018-.045q.046-.114.087-.23c.127-.36.29-.708.554-.988l.033-.035a2.35 2.35 0 0 1 1.785-.768" fill="#2272EB"/><path d="M7.855 6.222h1.97l1.309.001h4c.924-.003.924-.003 1.289.2l.045.023c.253.133.478.306.658.529l.029.035c.207.267.324.605.442.918l.043.112.086.224q.082.213.166.424.19.483.378.968l.069.176a17 17 0 0 0 .139.348.2.2 0 0 1 .014.086l-.814.132-.142.023q-.577.091-1.158.157l-.28.034c-.713.091-1.43.147-2.148.185l-.08.004a39 39 0 0 1-2.078.054h-.164c-.574 0-1.146-.012-1.719-.045l-.237-.012a14 14 0 0 1-.773-.053l-.197-.018-.049-.004a10 10 0 0 0-.351-.024 9 9 0 0 1-.516-.045q-.267-.03-.534-.054a10 10 0 0 1-.778-.1 13 13 0 0 0-.387-.056c-.398-.053-.794-.117-1.191-.179.051-.185.118-.361.189-.539l.07-.176.018-.045q.087-.22.17-.44a40 40 0 0 1 .262-.666 22 22 0 0 0 .178-.459c.131-.347.265-.685.496-.98l.035-.047c.171-.212.402-.379.643-.503l.041-.022c.273-.132.555-.17.855-.167" fill="#d0dae2"/><path d="M7.888 5.853h.681l.588-.001h.479l1.359-.001h.148l1.186-.001 1.22-.001.684-.001h.88c.807-.003 1.521.124 2.124.7.299.302.484.669.63 1.064l.036.095.052.138q.045.121.094.241.058.145.113.294.108.286.221.571l.068.173.198.5.056.14.067.17.03.075.026.065a.2.2 0 0 1 .016.098c.194-.034.342-.077.469-.234.086-.134.108-.273.124-.429.02-.078.048-.108.11-.157.094-.018.129-.008.208.045.084.121.058.229.037.369-.07.246-.197.493-.419.628a.9.9 0 0 1-.318.106c.129.267.31.498.486.734.314.422.569.825.574 1.368l.001.068q.004.354.005.707l.003.334q.003.203.003.406 0 .077.002.153c.011.705-.224 1.259-.701 1.768-.059.061-.113.11-.184.157-.01.06-.01.06-.008.132v.084l.001.091v.094q-.002.2 0 .399l-.001.244.001.137a.95.95 0 0 1-.269.696.86.86 0 0 1-.593.216l-.056.001-.183.001h-.064l-.333.001-.342.003-.265.001-.126.001c-.306.004-.53-.032-.769-.242-.37-.396-.253-.888-.253-1.413H7.406v.914c-.106.317-.186.497-.467.659-.201.095-.411.081-.629.08h-.128l-.268-.001h-.731c-.296.001-.532-.012-.757-.226-.225-.237-.264-.444-.256-.768l.001-.141q.001-.172.005-.345c.03-.378.03-.378-.088-.717a1 1 0 0 0-.221-.159 1.8 1.8 0 0 1-.328-.445l-.041-.074c-.29-.564-.258-1.178-.254-1.795v-.69c-.001-.387.034-.776.224-1.12l.036-.066c.107-.191.234-.367.363-.543.284-.354.284-.354.492-.75l-.052-.019c-.231-.098-.358-.283-.466-.502a.94.94 0 0 1-.045-.487c.054-.07.076-.091.164-.104.08.012.107.023.164.081.02.076.02.076.032.166.032.187.083.343.235.466a2 2 0 0 0 .156.093l.028-.088q.07-.204.152-.404l.068-.173.019-.047.283-.724c.17-.437.17-.437.247-.626l.067-.167.018-.045q.046-.114.087-.23c.127-.36.29-.708.554-.988l.033-.035a2.35 2.35 0 0 1 1.785-.768M6.285 6.945c-.193.25-.312.521-.426.813l-.034.087-.084.216q-.137.357-.28.713l-.257.645-.039.099-.207.533-.019.049c-.032.08-.032.08-.043.165 1.397.221 1.397.221 2.803.375l.05.004.136.011q.074.007.147.02c.098.016.196.022.295.029l.064.004.202.014.201.014.125.009q.139.009.278.025.15.017.301.023l.056.003.117.006.171.009.372.018.072.003c.464.02.927.025 1.391.025h.055q1.034.001 2.067-.051l.069-.004c.953-.05 1.908-.124 2.852-.266q.207-.03.414-.054c.225-.028.448-.058.67-.103q.206-.039.413-.07l.08-.013.189-.03a4 4 0 0 0-.173-.494l-.063-.157-.034-.084-.18-.453-.019-.048-.255-.657-.111-.292q-.108-.285-.225-.566l-.023-.056a2 2 0 0 0-.229-.406l-.048-.065c-.321-.42-.786-.662-1.306-.754q-.175-.012-.35-.009h-.383l-.303-.001-.593-.001h-2l-1.196-.001-1.23-.001-.69-.001h-.886c-.763-.003-1.385.122-1.904.725m-1.618 3.699-.034.07a2.5 2.5 0 0 1-.204.328l-.031.042-.059.082-.109.154-.138.195c-.272.373-.462.713-.463 1.186v.061l-.001.2v.069l-.001.364-.002.373-.001.289-.001.137c-.005.549.114 1.041.479 1.461l.044.052c.316.344.792.551 1.254.585q.231.007.462.005h2.939l1.983-.001h6.701c.574.001 1.202-.048 1.639-.475v-.047l.042-.018c.276-.152.432-.552.522-.835.072-.26.081-.505.079-.774v-.135l-.001-.281-.001-.359-.001-.279v-.132c0-.223-.001-.438-.055-.656l-.018-.079a1.7 1.7 0 0 0-.183-.419l-.028-.047c-.054-.09-.054-.09-.147-.135l-.019-.048c-.042-.103-.11-.183-.178-.27a7 7 0 0 1-.456-.713 5 5 0 0 0-.669.087c-.532.098-1.067.173-1.604.241l-.055.007a34 34 0 0 1-1.95.175l-.236.016a36 36 0 0 1-4.978-.011l-.081-.005a37 37 0 0 1-3.826-.443l-.078-.013-.145-.025c-.212-.054-.212-.054-.391.021" fill="#040405"/><path d="M7.965 6.225h.131l.341.002.349.002.683.005v.094h-.047l-.009.048a3 3 0 0 1-.062.233h-.047l-.008.039c-.017.063-.043.117-.071.176a3 3 0 0 0-.132.347h-.047l-.01.054c-.013.064-.013.064-.036.134h-.047l-.01.042c-.055.21-.149.422-.248.615h-.047l-.01.091a.4.4 0 0 1-.037.144h-.047l-.006.059a1 1 0 0 1-.105.262l-.051.1-.025.049a3 3 0 0 0-.195.468 1 1 0 0 1-.134.258.8.8 0 0 0-.092.211l-.06.146-.031.074-.05.106h-.047l-.009.038c-.112.431-.112.431-.249.548h.117l.023.047a10 10 0 0 1-1.107-.105l-.269-.036a12 12 0 0 1-.372-.057q-.277-.045-.555-.087l-.128-.02-.311-.046c.051-.185.118-.361.189-.539l.07-.176.018-.045.17-.44a40 40 0 0 1 .262-.666 22 22 0 0 0 .178-.459c.131-.347.265-.685.496-.98l.035-.047c.171-.212.402-.379.643-.503L7 6.389c.314-.152.623-.169.964-.165" fill="#b6c8d4"/><path d="M16.078 6.305c.15.026.275.07.409.142l.052.028c.146.081.266.179.383.299l.063.06.054.057.036.036c.255.267.386.626.512.966l.046.122.091.242q.083.219.169.436l.353.901.07.181.022.057a17 17 0 0 0 .139.348.16.16 0 0 1 .015.086l-.814.132-.142.023q-.577.091-1.158.157l-.28.034c-.674.086-1.356.155-2.037.169v-.07h.047l.006-.06a.6.6 0 0 1 .085-.196c.042-.078.068-.161.096-.244a1 1 0 0 1 .094-.179q.022-.052.042-.105.075-.187.162-.368c.031-.065.031-.065.053-.136h.047l.006-.057c.022-.106.065-.196.111-.294l.05-.111.023-.052.07-.167H15l.006-.073a.4.4 0 0 1 .085-.188c.054-.088.088-.187.125-.283l.049-.126.022-.056c.018-.047.018-.047.041-.094h.047l.009-.048a3 3 0 0 1 .062-.233h.047v-.094h.047l.007-.04a.9.9 0 0 1 .134-.335c.018-.053.018-.053.023-.094h.047l.023-.141h.047l.013-.051c.034-.129.071-.25.128-.371h.047l.009-.04q.025-.088.062-.171" fill="#b7c8d4"/><path d="m15.094 6.234.298-.003.101-.001c.192-.002.375 0 .562.05.033.098-.004.144-.047.234h-.047l-.008.061a1 1 0 0 1-.076.229l-.032.075-.025.059h-.047l-.023.141h-.047l-.009.051a1 1 0 0 1-.06.183l-.024.059-.024.058-.047.117h-.047v.094h-.047l.003.067c-.003.073-.003.073-.05.12-.015.048-.015.048-.023.094h-.047l-.028.086c-.135.403-.135.403-.211.508a.6.6 0 0 0-.089.226h-.047l-.006.045c-.025.1-.068.189-.111.283a3 3 0 0 0-.141.352h-.047l-.006.059a1 1 0 0 1-.108.266 3 3 0 0 0-.167.378l-.045.091a3 3 0 0 0-.12.275q-.044.11-.093.221h-.047v.07a16 16 0 0 1-1.383.047v-.023h.352l.023-.117h.047l.047-.234h.047v-.094h.047l.009-.051a1 1 0 0 1 .066-.18q.072-.155.133-.315.09-.226.204-.442c.035-.066.035-.066.057-.137h.047l.008-.052a.5.5 0 0 1 .071-.164 1.3 1.3 0 0 0 .116-.277c.02-.055.05-.093.086-.139l.047-.141.067-.146a6 6 0 0 0 .167-.395h.047l.003-.066c.019-.133.095-.242.161-.356a2 2 0 0 0 .141-.331 1 1 0 0 1 .141-.278q.037-.089.07-.178c.024-.056.024-.056.075-.132a.4.4 0 0 0 .066-.205h.047z" fill="#cedae2"/><path d="m6.067 12.668.068.001c.212.005.379.055.568.152v.047l.052.018c.211.095.36.327.441.537.094.315.089.675-.066.969-.13.211-.332.427-.567.515l-.048.022c-.24.093-.599.092-.84.001a1.3 1.3 0 0 1-.424-.281v-.047h-.047a1.28 1.28 0 0 1-.281-.914c.047-.316.203-.602.459-.796.22-.146.42-.229.686-.223" fill="#030405"/><path d="M17.984 12.872c.237.177.394.435.461.722.041.388-.034.721-.281 1.031h-.047v.047c-.322.269-.641.339-1.055.305a1 1 0 0 1-.586-.328l-.045-.048c-.26-.279-.299-.557-.291-.928a.8.8 0 0 1 .126-.407l.041-.067c.17-.254.404-.437.702-.509.354-.065.673-.011.975.182" fill="#040507"/><path d="m9.045 13.626.071-.001h.237l.17-.001h.895l.86.001h2.223l.452.001h.166l.226.001.067-.001a.4.4 0 0 1 .238.055c.045.053.045.053.06.135-.015.082-.015.082-.06.133-.102.06-.188.055-.304.054h-.308l-.17.001h-.895l-.912-.001H9.272l-.226-.001-.067.001c-.098-.001-.152-.004-.238-.056-.046-.049-.046-.049-.06-.117.041-.201.192-.206.364-.204" fill="#010102"/><path d="M6.431 13.091q.314.177.443.512a.88.88 0 0 1-.116.662 1 1 0 0 1-.453.337l-.047.023c-.277.021-.473-.022-.696-.187a.9.9 0 0 1-.194-.258l-.024-.043c-.086-.184-.078-.432-.013-.621a.88.88 0 0 1 .505-.461.88.88 0 0 1 .595.036m11.206-.001a.96.96 0 0 1 .448.524c.038.211.028.427-.085.613a1.03 1.03 0 0 1-.563.398.9.9 0 0 1-.656-.188.83.83 0 0 1-.29-.566.83.83 0 0 1 .189-.578.84.84 0 0 1 .957-.203" fill="#fbfbfb"/><path d="M15.094 6.234h.727v.023l-.065.002-.084.004-.084.003c-.072.006-.072.006-.101.055l-.018.054-.117.234h-.047l-.009.044-.013.058-.012.058c-.013.051-.013.051-.037.098h-.047l-.035.142a1.7 1.7 0 0 1-.177.408 2.4 2.4 0 0 0-.143.312q-.042.101-.095.197a.7.7 0 0 0-.043.136h-.047l-.023.117h-.047l-.007.046a2 2 0 0 1-.088.266l-.02.053-.048.128h-.047v.094h-.047l-.008.048a2 2 0 0 1-.072.234l-.031.086a2 2 0 0 1-.076.171h-.047l-.047.211h-.047v.094h-.047v.094h-.047l-.047.234h-.047l-.023.164-.07.023-.007.047c-.021.09-.053.172-.086.258h-.047l.006.045c-.009.106-.054.187-.1.283l.328.023v.023c-.375.022-.749.026-1.125.023v-.023h.352l.023-.117h.047l.047-.234h.047v-.094h.047l.009-.051a1 1 0 0 1 .066-.18q.073-.155.133-.315.09-.226.204-.442c.035-.066.035-.066.057-.137h.047l.008-.052a.5.5 0 0 1 .071-.164 1.3 1.3 0 0 0 .116-.277c.02-.055.05-.093.086-.139l.047-.141.067-.146a6 6 0 0 0 .166-.393h.047l.003-.066c.019-.133.095-.242.161-.356a2 2 0 0 0 .141-.331 1 1 0 0 1 .141-.278q.037-.089.07-.178c.024-.056.024-.056.075-.132a.4.4 0 0 0 .066-.205h.047z" fill="#b7c7d2"/><path d="M19.664 12.234c.143.215.102.54.102.789l.001.134.001.281.002.356.001.278.001.131c.006.565-.14 1.079-.529 1.499l-.038.042c-.033.029-.033.029-.08.029v.047c-.175.158-.39.27-.609.352l-.063.024c-.263.087-.517.083-.791.081h-.159l-.436-.001h-.423l-.864-.001-.855-.001h-.324l-1.914-.002-1.859-.002h-.634l-1.173-.001h-.054l-3.598-.004v-.023h.082l3.564-.004h.054l1.747-.002h.058l1.855-.002 2.228-.003.853-.001.857-.001h.465l.425-.001h.154l.209-.001h.061a.8.8 0 0 0 .349-.08.4.4 0 0 1 .211-.047v-.047l.055-.026c.136-.065.259-.132.376-.227.036-.027.036-.027.106-.05l.047-.07.103-.086c.112-.093.112-.093.178-.219l.047-.023.01-.081.014-.083.07-.047c.017-.072.017-.072.023-.141h.047l.047-.375h.047l-.008-.862-.004-.4-.004-.387-.001-.147-.002-.207v-.061a2 2 0 0 0-.028-.326" fill="#4585b2"/><path d="M18.625 10.581c.071.017.082.044.122.104.031.051.031.051.05.097l-.023.047-.045-.045c-.157-.106-.325-.07-.503-.045-.199.028-.399.035-.6.043v.047l-.081.009-.105.013-.054.006c-.087.003-.087.003-.159.042q-.119.01-.237.017c-.066-.001-.066-.001-.092.03l-.097.011-.061.005-.066.006a14 14 0 0 0-.535.058l-.271.031-.087.009-.174.018-.08.009-.073.008c-.054.003-.054.003-.078.032-.231.032-.467.03-.7.035l-.143.003-.084.002a2 2 0 0 0-.262.031c-.197.028-.392.03-.591.03h-1.31l-.633.001h-.874c-.541.002-1.076-.02-1.615-.066a12 12 0 0 0-.455-.028 3 3 0 0 1-.457-.056v-.023c.227-.006.452.01.678.027q.317.023.634.043l.062.004a34 34 0 0 0 4.857-.038 31 31 0 0 0 1.95-.185l.284-.036q.68-.084 1.354-.206l.058-.01.105-.019c.13-.024.263-.034.392-.061" fill="#3d79a0"/><path d="M5.942 12.603h.503c.071.006.071.006.118.053v.07l.047.006a.8.8 0 0 1 .258.111l.047.094.056.016c.086.043.095.097.129.183.027.061.06.108.099.161.122.18.118.378.12.589l.001.056c-.001.091-.002.136-.053.213a2 2 0 0 0-.011.179c-.013.056-.013.056-.058.098-.05.029-.05.029-.096.029l-.016.05c-.038.084-.087.138-.148.208l-.047.07-.083.023-.081.023-.023.07c-.05.027-.05.027-.113.05l-.062.024a1.4 1.4 0 0 1-.407.061l-.069.005a.6.6 0 0 1-.357-.069l-.086-.01c-.091-.015-.112-.04-.171-.107l-.045-.021c-.072-.04-.113-.104-.166-.167l-.07-.023c-.024-.04-.024-.04-.045-.089a.34.34 0 0 0-.098-.141c-.074-.087-.076-.199-.091-.309h-.047c-.045-.631-.045-.631.07-.797.051-.021.051-.021.094-.023v-.164l.094-.023.004-.054c.019-.063.019-.063.075-.105.059-.029.059-.029.13-.029v-.047l.117-.023c-.082.085-.082.085-.13.12-.202.15-.327.412-.376.654-.043.322.017.594.195.866.03.047.03.047.053.118h.047l.035.05c.137.158.368.27.574.302.371.022.691.002.985-.252a2 2 0 0 0 .117-.124l.058-.065c.191-.232.228-.535.204-.825a1.1 1.1 0 0 0-.403-.751l-.117-.07v-.047l-.095-.032-.054-.018-.062-.02-.073-.025a1.4 1.4 0 0 0-.347-.027l-.068-.001c-.134 0-.25.015-.379.053v-.094a.8.8 0 0 1 .317-.053" fill="#3d7ea7"/><path d="M9.045 13.627h.072l.238.001h.17l.367.001.531.001q.431 0 .861.002.418.002.837.002h.311l2.146.006.023.047h-.088l-2.327.008h-.051l-.822.003-.844.003-.474.002-.446.002-.164.001-.223.001h-.066a1.6 1.6 0 0 0-.307.027c-.025.091-.022.129.023.211l2.416.004h.051l.822.002.844.001.474.001.446.001h.387l.066.001a.54.54 0 0 0 .307-.079h.047l-.047-.188.07.047c.012.079.012.079 0 .164-.05.057-.09.089-.166.102a2 2 0 0 1-.184.003h-.308l-.17.001h-.895l-.912-.001H9.271l-.226-.001-.067.001c-.098-.001-.152-.004-.238-.056-.045-.05-.045-.05-.059-.118.041-.202.192-.206.365-.203" fill="#000e1f"/><path d="m4.523 16.008.193.08.085.036.083.036c.32.116.641.116.976.115H7.7l.836-.001h.265l1.927-.001 1.817-.001h.507l1.789-.001h.523l1.1-.001h1.022c.266 0 .53-.004.796-.027-.059.061-.106.076-.188.079h-.405l-.16.001-.44.001-.425.001-.977.002-.972.002h-.055l-1.52.003h-.524l-1.815.004-2.256.005h-.054l-.808.002-.919.002-.469.001-.43.001-.155.001c-.313.002-.635.002-.905-.178l-.079-.009a.3.3 0 0 1-.202-.108z" fill="#000e1e"/><path d="M17.484 16.641h.258v1.289h-.258z" fill="#2f2f2f"/><path d="m5.156 16.172.039.005c.242.027.485.022.728.021h11.94c.088.008.088.008.161-.027q.071-.003.142-.001l.078.001.061.001v.023a1.1 1.1 0 0 1-.386.053h-3.371l-1.927-.001-1.872-.001h-.058l-1.76-.001h-.055l-3.625-.002v-.047z" fill="#3284bb"/><path d="M5.672 16.641h.234v1.289h-.234z" fill="#323232"/><path d="M14.672 13.711h.047l.013.126.007.071c.003.061.003.061-.02.108a.6.6 0 0 1-.195.026H8.883c-.047-.003-.047-.003-.117-.026v-.047h.091l2.388.004h.053l.844.002.865.001.534.001h.806l.068.001c.117 0 .117 0 .225-.042.042-.048.043-.073.039-.136z" fill="#376a8e"/><path d="M18.328 16.594v1.336h-.211v-1.313c.094-.023.094-.023.211-.023" fill="#2f2f2f"/><path d="M5.086 16.617h.188c.023.023.023.023.026.075v.319l-.001.275v.186l-.001.457h-.211z" fill="#313131"/><path d="M16.922 16.641h.211v1.289h-.211zm-10.641 0h.211v1.289h-.211z" fill="#2e2e2e"/><path d="M19.664 12.234c.143.215.102.54.102.789l.001.134.001.281.002.356.001.278.001.131c.006.565-.14 1.079-.529 1.499l-.038.042c-.033.029-.033.029-.08.029v.047c-.264.238-.693.449-1.052.451L18 16.266v-.023l.062-.013c.138-.03.258-.06.384-.128h.094v-.047l.055-.026c.136-.065.259-.132.376-.227.037-.029.037-.029.107-.052l.047-.07.103-.086c.112-.093.112-.093.178-.219l.047-.023.01-.081.014-.083.07-.047c.017-.072.017-.072.023-.141h.047l.047-.375h.047l-.008-.862-.004-.4-.004-.387-.001-.147-.002-.207v-.061a2 2 0 0 0-.028-.326" fill="#43799f"/><path d="m7.992 11.016.242-.001.069-.001h.128a.3.3 0 0 1 .124.025l.111.006.068.002.074.002.157.006.246.008.238.008.072.002q.188.007.373.029c.327.04.654.036.982.035h.262l.44-.001h1.202c.44.001.44.001.879-.014l.051-.003c.085-.005.085-.005.164-.034q.084-.003.169-.002h.05l.159.001h.108l.264.001v.023l-.45.029-.152.01q-.26.018-.522.033l-.064.004c-.521.03-1.043.025-1.565.026h-.075c-1.273 0-2.535-.059-3.804-.17z" fill="#05192e"/><path d="m17.35 12.624.091-.001h.166c.074.01.089.024.136.079.084.028.169.048.255.069l.073.025.023.07q.034.036.07.07l.047.07.07.023c.028.056.028.056.053.126l.025.069c.016.065.016.065-.007.135l-.026-.045c-.172-.296-.378-.492-.714-.598a1.3 1.3 0 0 0-.301-.022l-.062-.001a1.15 1.15 0 0 0-.779.319 1.1 1.1 0 0 0-.307.794l-.001.066c.003.292.121.567.319.782.064.061.133.11.207.158l-.023.047-.141-.07v-.047l-.056-.006c-.062-.017-.062-.017-.093-.061-.016-.05-.016-.05-.016-.12h-.047v-.047h-.047l-.031-.073a1.4 1.4 0 0 0-.078-.157c-.075-.175-.059-.382-.057-.57v-.068l.001-.164h.047l.009-.063a.7.7 0 0 1 .062-.195l.047-.023.034-.082.037-.082.07-.023v-.07l.117-.07.079-.073c.081-.071.141-.081.249-.091l.066-.035c.136-.06.286-.045.432-.044" fill="#4283ac"/><path d="M8.25 11.063q.248-.005.495.014l.06.004.247.019c1.04.08 2.082.089 3.125.094l.549.003 1.124.006v.023l-1.482.004-.689.002-.602.001-.317.001a18 18 0 0 1-1.6-.065 12 12 0 0 0-.455-.028 3 3 0 0 1-.457-.056z" fill="#4282ac"/><path d="m3.727 12.094.023.047q-.025.067-.052.132c-.048.144-.045.293-.045.442v.429l.001.391v.4l.001.783c-.072-.072-.079-.135-.08-.235v-1.538c-.001-.284.02-.551.08-.828z" fill="#011529"/><path d="M4.711 10.594a1.7 1.7 0 0 1 .353.029l.054.009.169.029q.38.068.76.12l.107.015.347.047.121.016.292.039a.4.4 0 0 1-.215.051h-.063c-.05-.004-.05-.004-.073-.027l-.192-.022a12 12 0 0 1-.558-.072v-.047l-.064.002a1.8 1.8 0 0 1-.499-.049 1.7 1.7 0 0 0-.516-.07l-.047.117-.07-.023z" fill="#407ba1"/><path d="m5.391 12.844.07.023-.04.028a1.17 1.17 0 0 0-.466.722c-.028.218-.011.403.062.61.023.07.036.137.046.21l-.07-.023c-.022-.051-.022-.051-.04-.114l-.018-.063c-.013-.057-.013-.057-.013-.128h-.047c-.045-.631-.045-.631.07-.797.051-.021.051-.021.094-.023v-.164l.094-.023.004-.054c.019-.063.019-.063.075-.105.061-.029.061-.029.132-.029v-.047z" fill="#4881a7"/><path d="M18.68 10.594c.038.039.038.039.067.091l.031.051.019.045-.023.047-.045-.045c-.157-.106-.325-.07-.503-.045-.199.028-.399.035-.6.043v.047l-.177.023-.05.007a2 2 0 0 1-.312.017c.08-.053.149-.064.242-.079l.052-.009.168-.027.115-.019.23-.037.285-.048.078-.013.14-.024.063-.011.053-.009a1 1 0 0 1 .169-.006" fill="#3c7ea9"/><path d="M19.734 12.398a.35.35 0 0 1 .053.193v.571l-.001.325v.893l-.001.215v.065c-.001.147-.001.147-.027.199h-.047l.006.076c-.007.102-.026.116-.1.182l.045-.193.013-.055.013-.054.012-.049q.011-.046.024-.091a.7.7 0 0 0 .014-.146v-.549l-.001-.393v-.401l-.001-.787" fill="#000918"/><path d="m4.594 10.805.023.094-.047.023-.023.117-.023.047h-.047q-.04.076-.07.154c-.023.057-.023.057-.07.127H4.29v.047h-.047l-.003.064c-.021.076-.021.076-.089.129l-.073.041-.047.047c0-.118.048-.169.117-.258l.071-.094.036-.047q.094-.13.181-.266a6 6 0 0 1 .158-.225" fill="#3d779d"/><path d="M5.109 10.641c.152-.003.301.008.453.022l.07.006.067.006.061.006c.053.007.053.007.123.03q.1.01.199.017a.2.2 0 0 1 .106.03l.132-.004a.55.55 0 0 1 .337.098.4.4 0 0 1-.194.014l-.06-.008-.065-.01-.068-.01q-.346-.05-.692-.105l-.469-.069z" fill="#05192e"/><path d="M18.281 14.414h.023c.015.102-.004.156-.063.237a1 1 0 0 1-.195.185l-.047.047-.141.047-.047.023q-.094.003-.188 0a.34.34 0 0 1 .144-.088c.1-.043.179-.097.264-.166.039-.027.039-.027.086-.027v-.047h.047l.019-.053a.6.6 0 0 1 .098-.158" fill="#3d7aa5"/><path d="M16.125 13.641h.023l.003.085c.008.282.008.282.091.548l.025.058c.096.209.228.355.421.481l-.023.047-.141-.07v-.047l-.056-.006c-.062-.018-.062-.018-.093-.062-.016-.05-.016-.05-.016-.12h-.047v-.047h-.047l-.048-.114c-.022-.052-.022-.052-.06-.107-.049-.124-.04-.241-.037-.373l.001-.079z" fill="#4381ac"/><path d="M5.156 13.125c.026.088.026.088 0 .141h-.047l-.009.05-.012.065-.012.064c-.013.055-.013.055-.06.102-.009.066-.009.066-.01.143l-.003.086-.002.09-.003.091-.006.223c-.107-.161-.087-.381-.06-.566.037-.166.1-.366.224-.489" fill="#06182b"/><path d="M6.914 10.922c.161-.003.317.008.478.026l.075.008.234.025.16.017.39.042v.023c-.761.006-.761.006-.867-.047l-.253-.027a.4.4 0 0 1-.216-.067" fill="#407ea3"/><path d="M7.172 13.43c.117.176.099.48.061.684-.065.254-.2.428-.389.605l-.023-.094.07-.023.07-.117h.047l.006-.076c.02-.1.042-.113.111-.182.022-.062.034-.123.047-.188h.047z" fill="#031628"/><path d="M17.859 14.859a1.32 1.32 0 0 1-.992.067c-.039-.02-.039-.02-.086-.067l.103-.001.058-.001c.05.002.05.002.097.026.172.031.341.054.516.047v-.047l.113-.025.063-.014c.058-.008.058-.008.128.015" fill="#010511"/><path d="M18.375 13.383h.07c.048.159.054.306.053.472l.001.075a.8.8 0 0 1-.053.344h-.047l-.047.141h-.047c.07-.211.07-.211.096-.274.029-.104.028-.2.027-.308l.001-.06c0-.136-.02-.257-.053-.389" fill="#3c759b"/><path d="M18.797 10.828q.104.128.196.264l.028.04.221.329h-.047l-.023.047-.047-.117-.07.023c-.061-.064-.07-.091-.075-.182l.004-.076-.045-.019c-.048-.028-.048-.028-.072-.098l-.07-.047c-.004-.085-.004-.085 0-.164" fill="#3b7da8"/><path d="m15.809 11.013.065.001.157.002v.023l-.058.006-.257.028-.091.01-.086.009-.08.009c-.059.003-.059.003-.084.033-.246.039-.501.026-.75.023v-.023H15v-.047l.075-.003.1-.005.049-.002a1 1 0 0 0 .241-.037c.114-.031.225-.028.343-.026" fill="#3b85b6"/><path d="m17.348 12.625.091-.001h.166c.074.01.09.023.136.079.061.028.061.028.117.047v.047l-.113-.034-.063-.019-.127-.041-.108-.003h-.196q-.189 0-.376.027v-.047c.158-.06.306-.055.473-.054" fill="#3f759a"/><path d="m6.75 10.875.23-.001.066-.001h.121a.3.3 0 0 1 .122.025l.174.009c.167.008.321.037.482.085v.023a17 17 0 0 1-1.195-.117z" fill="#051a2a"/><path d="M5.836 12.63h.42q.108.005.214.026v.047l.07.023c-.047.023-.047.023-.116.002-.116-.036-.231-.032-.351-.031l-.068-.001c-.134 0-.25.015-.379.053v-.094a.6.6 0 0 1 .211-.027" fill="#3f83af"/><path d="M16.242 13.313h.023l.003.136.002.077c-.004.068-.004.068-.051.138-.032.208-.028.405.023.609l-.047-.023a1.4 1.4 0 0 1-.056-.442l-.002-.066a.9.9 0 0 1 .104-.429" fill="#010f1e"/><path d="m5.391 12.844.07.023-.04.028c-.237.172-.351.381-.452.652h-.023c-.003-.174-.003-.174.023-.258h.07v-.164l.094-.023.004-.054c.019-.063.019-.063.075-.105.061-.029.061-.029.132-.029v-.047z" fill="#427da5"/><path d="M19.242 11.461c.094.111.094.111.094.164l.07.023c.03.038.03.038.059.088l.032.054.032.056.034.056c.06.103.06.103.078.145l-.023.047h-.047l-.047-.091-.026-.051c-.021-.046-.021-.046-.021-.093l-.044-.005c-.05-.018-.05-.018-.078-.064l-.022-.057a1 1 0 0 0-.091-.179z" fill="#3c78a3"/><path d="M6.075 12.671h.067c.125.002.232.015.35.056a.6.6 0 0 1-.218.019l-.072-.004-.149-.01-.072-.004-.066-.004c-.062-.002-.062-.002-.126.05a3 3 0 0 1-.164.023v.047h-.141c.18-.143.364-.179.59-.173" fill="#010d1c"/><path d="M18.375 9.984c.055.055.064.093.085.167l.019.065.013.05a1 1 0 0 1-.281.023l-.047-.07c.08-.049.142-.051.234-.047l-.047-.07c.009-.063.009-.063.023-.117" fill="#b6c1cb"/><path d="m5.766 12.609.318-.003.108-.001.155-.001.049-.001q.06 0 .12.005c.047.047.047.047.047.117l.05.007a.8.8 0 0 1 .208.086v.023a.57.57 0 0 1-.352-.141v-.047l-.703-.023z" fill="#3587b9"/><path d="M18.68 10.594c.038.039.038.039.067.091l.031.051.019.045-.023.047c-.11-.085-.11-.085-.141-.117v-.07l-.073.015a2.2 2.2 0 0 1-.56.055v-.023l.274-.047.078-.014.076-.013.07-.012a1 1 0 0 1 .182-.009" fill="#3c7191"/><path d="m16.852 12.703.023.047-.05.025a1.7 1.7 0 0 0-.442.327l-.023-.094h.047v-.07l.117-.07.079-.073c.082-.073.14-.086.249-.091" fill="#417ba4"/><path d="m16.898 14.93.065.012c.126.018.252.014.379.013h.076l.184-.001v.07l-.286.016-.082.005-.079.004-.073.004a.3.3 0 0 1-.184-.076z" fill="#3b789e"/><path d="M19.758 14.063h.023l.001.318v.108l.001.155v.049c0 .114 0 .114-.026.167h-.047l.006.076c-.007.102-.026.116-.1.182l.045-.193.013-.055.013-.054.012-.049.024-.092a1 1 0 0 0 .018-.181l.003-.076.003-.079.003-.08z" fill="#000919"/><path d="m14.625 13.688.07.047c.012.079.012.079 0 .164-.049.054-.089.089-.162.102a2 2 0 0 1-.161.001h-.059l-.187-.003-.127-.001-.311-.005v-.023l.071-.001.262-.005.113-.002.163-.003h.051a.55.55 0 0 0 .278-.082h.047z" fill="#000a19"/><path d="m5.883 7.688.023.047.047.023-.07.023.047.117h.047v.07l-.056.018c-.069.033-.083.053-.108.123h-.07q.06-.214.141-.422" fill="#b4c0c9"/><path d="m17.29 12.589.088.003.091.004.093.004.226.009.023.117-.094-.023v-.047h-.75l.023-.047c.101-.024.195-.025.298-.021" fill="#3486ba"/><path d="M17.063 10.828v.023l-.313.047-.089.014c-.164.024-.322.04-.488.033v-.023h.141v-.047c.534-.056.534-.056.75-.047" fill="#031528"/><path d="m19.172 15.75.023.047h-.047v.094l-.056.006c-.065.011-.065.011-.088.063l-.02.048a.5.5 0 0 1-.166.075l-.049.013c-.042.006-.042.006-.089-.018l.051-.027c.128-.067.238-.136.347-.231h.047v-.047z" fill="#07182c"/><path d="M19.477 15.375h.023v.117l-.044.015c-.057.029-.057.029-.07.098-.035.1-.083.13-.167.192l-.023-.07c.029-.042.029-.042.073-.088q.087-.091.158-.193zm-.328.422.047.023-.047.023z" fill="#020717"/><path d="m17.301 12.672.064-.001c.146 0 .265.024.4.079a.5.5 0 0 1-.218.008 4 4 0 0 0-.253-.021l-.048-.003a4 4 0 0 0-.277-.007c.109-.063.21-.055.333-.054" fill="#020b1a"/><path d="M3.914 11.766c.025.085.019.11-.023.188l-.021.085c-.026.078-.026.078-.076.112l-.044.013v.094h-.047c.029-.191.108-.33.211-.492" fill="#407ba3"/><path d="M6.516 12.75c.135.044.135.044.188.07v.047l.048.013c.097.047.16.12.233.198l-.07.023-.023-.047-.057-.032a.22.22 0 0 1-.107-.132l-.094.023v-.047l-.07-.023v-.047h-.047z" fill="#04192b"/><path d="m4.992 14.18.047.023v.047h.07l.047.103.026.058c.021.05.021.05.021.097h.047v.094h-.047c-.039-.053-.039-.053-.082-.123l-.043-.069c-.086-.145-.086-.145-.086-.23" fill="#031324"/><path d="M4.945 13.313c.025.075.022.091.002.163a2 2 0 0 0-.04.389l-.003.072-.006.173h-.023c-.043-.609-.043-.609.07-.797" fill="#3887b8"/><path d="M4.664 10.594h.047c-.032.085-.07.162-.117.24l-.037.062c-.034.049-.034.049-.08.073a.5.5 0 0 1 .117-.305l.07-.023z" fill="#041528"/><path d="m19.313 15.492.07.047-.103.117-.058.066-.051.051h-.047v.047l-.07-.023.047-.117h.047c.042-.042.042-.042.085-.094l.045-.053z" fill="#3d7da3"/><path d="M5.638 14.795c.081.018.081.018.128.064l.094.047v.047a.8.8 0 0 1-.375-.117c.07-.047.07-.047.154-.041" fill="#041329"/><path d="M5.625 12.75c-.085.078-.171.093-.281.117v.047h-.07l-.023-.094c.115-.069.244-.074.375-.07" fill="#3985bb"/><path d="M4.945 10.641c-.047.047-.047.047-.12.05l-.067-.003-.02.051a3 3 0 0 1-.089.191l-.032.063-.023.046h-.047v-.117l.07-.023v-.117l.07-.023.022-.047c.025-.047.025-.047.067-.064q.085-.008.168-.006" fill="#388cbc"/><path d="M5.578 8.484a.6.6 0 0 1-.023.375h-.094l-.023-.047a3 3 0 0 1 .069-.167l.021-.047z" fill="#acb9c0"/><path d="m4.172 11.32.07.023-.258.352c-.024-.073-.027-.094 0-.164l.07-.047.07-.141z" fill="#031024"/><path d="M4.008 15.516c.057.019.057.019.117.047l.023.07.117.047c.047.07.047.07.038.122l-.014.042-.114-.111-.064-.063a.5.5 0 0 1-.103-.154" fill="#40799f"/><path d="m4.523 16.008.048.019.155.062.092.037.047.019q.113.044.221.099l-.101-.009-.057-.005c-.053-.011-.053-.011-.123-.058l-.079-.009a.3.3 0 0 1-.202-.108z" fill="#041628"/><path d="m6.633 14.859-.1.045-.056.026a.7.7 0 0 1-.313.046v-.047l.064-.01c.085-.015.16-.033.24-.063.072-.021.095-.018.164.003" fill="#031123"/><path d="M8.742 13.688c.023.047.023.047.022.103.002.065.015.1.048.155H9v.047c-.167.011-.167.011-.258-.038-.047-.056-.047-.056-.057-.127.01-.07.01-.07.057-.14" fill="#041729"/><path d="M18.094 12.984c.123.01.123.01.188.047a.8.8 0 0 1 .094.258l-.023.07-.027-.046a2 2 0 0 0-.231-.329" fill="#3f779d"/><path d="m4.055 15.492.164.094v.047l.041.001c.086.036.106.104.146.186v.047c-.044-.003-.044-.003-.094-.023l-.022-.067c-.031-.091-.059-.1-.142-.144-.054-.048-.054-.048-.094-.094z" fill="#3886b6"/><path d="M7.359 10.922c.208-.009.387.01.586.07v.023a2.7 2.7 0 0 1-.586-.07z" fill="#020d20"/><path d="m18.188 10.734-.094.047v.047l-.055-.005a4 4 0 0 0-.414-.018c.087-.054.167-.056.268-.062l.092-.005q.102-.005.202-.003" fill="#3086bd"/><path d="M18.281 14.32h.047a.7.7 0 0 1-.164.305h-.047v.047c-.059.038-.059.038-.117.07.013-.067.02-.09.07-.141h.07v-.07h.047l.007-.04a.6.6 0 0 1 .086-.171" fill="#031224"/><path d="m6.656 10.875-.185-.021-.053-.006c-.132-.015-.132-.015-.184-.068.175-.03.279-.018.422.094" fill="#041222"/><path d="M3.773 9.492h.023l.003.054c.009.118.019.232.048.347l.02.091-.047.047c-.054-.082-.049-.116-.047-.211l-.023-.07q.003-.067.01-.133l.007-.071z" fill="#d7d7d7"/><path d="M18.047 14.836c-.058.058-.11.07-.188.094l-.047.023q-.094.003-.188 0c.09-.09.303-.177.422-.117" fill="#3d83b0"/><path d="m8.719 13.641.094.023-.047.038c-.053.053-.053.053-.056.127.004.073.004.073.056.139h-.047l-.023.047c-.063-.094-.061-.171-.047-.281.035-.06.035-.06.07-.094" fill="#3b80ad"/><path d="m5.648 13.148.023.047-.07.07.047.023-.066.016c-.088.036-.104.064-.145.148l-.047.07-.023-.07a1 1 0 0 1 .281-.305" fill="#dadada"/><path d="M17.695 10.734v.023l-.214.035-.061.01a1.6 1.6 0 0 1-.311.025v-.023c.195-.071.381-.073.586-.07" fill="#02172a"/><path d="m17.273 10.453-.047.094h-.258c.047-.07.047-.07.1-.086q.102-.011.205-.007" fill="#0e141c"/><path d="M17.367 7.148a.8.8 0 0 1 .047.258h-.047l-.117-.234c.07-.023.07-.023.117-.023" fill="#0b1013"/><path d="M16.781 14.859h.211l.023.07.234.023v.023a.94.94 0 0 1-.422-.07z" fill="#071a2f"/><path d="M6.703 12.844h.164l.019.044c.027.057.027.057.098.097l-.023.094-.103-.091-.058-.051z" fill="#3f759b"/><path d="M17.813 8.695c.044.004.044.004.094.023a.28.28 0 0 1 .044.18c-.021.055-.021.055-.115.102l.023-.211h-.047z" fill="#b1bdc6"/><path d="M18 12.914c.09.036.134.089.193.164l.05.063c.038.054.038.054.038.101h-.047l-.017-.042c-.044-.077-.109-.122-.178-.177-.039-.039-.039-.039-.039-.109" fill="#031322"/><path d="M5.906 12.703a.5.5 0 0 1-.281.094v.047h-.141a.8.8 0 0 1 .211-.123l.06-.025a.2.2 0 0 1 .151.008" fill="#07182d"/><path d="M3.727 15.773q.124.122.234.258l-.094.023-.07-.088-.04-.049c-.03-.05-.03-.05-.03-.144" fill="#e0e0e0"/><path d="M16.125 13.641h.023l.004.087.006.114.003.057q.008.165.034.328l-.07-.023z" fill="#386e8c"/><path d="M16.242 13.313h.023a.5.5 0 0 1-.07.305c-.016.064-.016.064-.023.117h-.023a.8.8 0 0 1 .094-.422" fill="#082036"/><path d="M18.375 13.383h.07c.043.144.052.272.047.422h-.023z" fill="#4481ab"/><path d="m17.32 10.336.117.023v.047l.094.023-.305.023v-.07h.094z" fill="#adb7be"/><path d="m5.32 9.141.07.047-.023.117H5.32l-.047.117h-.047l.034-.114.019-.064c.018-.056.018-.056.041-.103" fill="#aab7bf"/><path d="m19.008 15.773.07.023c-.017.045-.017.045-.047.094-.051.019-.051.019-.108.029l-.058.011-.045.008a1 1 0 0 1 .188-.164" fill="#3b89b4"/><path d="m17.859 14.859-.161.059-.046.017c-.115.042-.115.042-.168.042v-.047h.07v-.047l.113-.025.063-.014c.059-.008.059-.008.129.015" fill="#04182c"/><path d="M14.672 13.711h.047l.013.126.007.071c.003.061.003.061-.02.108h-.141v-.047l.047-.026c.051-.039.051-.039.053-.09q0-.07-.006-.141" fill="#3e7ea8"/><path d="m4.906 10.554.056.008.194.032c-.077.051-.086.052-.171.04l-.056-.008-.194-.032c.077-.051.086-.052.171-.04" fill="#051428"/><path d="M17.484 7.711c.055.055.064.093.085.167l.019.065.014.049h-.047v-.047h-.094z" fill="#a8b3ba"/><path d="M6.984 13.102a.8.8 0 0 1 .188.258v.07h-.047l-.019-.081-.028-.083-.07-.023c-.028-.06-.028-.06-.047-.117z" fill="#061b30"/><path d="M6.234 13.031h.305l.023.07-.07.047c-.063-.016-.063-.016-.133-.044l-.071-.028-.054-.021z" fill="#191919"/><path d="M19.453 11.766a.7.7 0 0 1 .135.177l.032.056.021.048-.023.047h-.047a.8.8 0 0 1-.117-.328" fill="#386f92"/><path d="m16.992 10.359.023.047h.047v.047l.07.023-.258.023v-.07h.094z" fill="#b2c0c5"/><path d="m4.031 9.352-.07.047a.43.43 0 0 0-.141.211h-.023c-.011-.147-.011-.147.038-.221.07-.046.114-.044.196-.037" fill="#1e1e1e"/><path d="M18.68 16.125c-.092.086-.157.106-.281.117l-.07.023-.047-.047.173-.06.05-.018c.124-.042.124-.042.176-.016" fill="#0c1f32"/><path d="m19.594 15.117.047.047a.4.4 0 0 1-.07.211h-.07q.042-.13.094-.258" fill="#031220"/><path d="M5.063 14.391c.072.065.11.119.141.211h.047l.047.094c-.075-.014-.126-.026-.171-.089a.4.4 0 0 1-.064-.215" fill="#407aa1"/><path d="m3.727 12.094.023.047-.052.137a1 1 0 0 0-.041.215h-.023c-.035-.133-.008-.244.023-.375z" fill="#051a30"/><path d="M19.523 12c.079.052.113.076.136.17l.005.064h-.07a.4.4 0 0 1-.07-.234" fill="#3e83b0"/><path d="M15.141 11.016v.023a1.4 1.4 0 0 1-.492.047v-.023l.053-.009.07-.013.069-.012c.063-.011.063-.011.116-.026.064-.014.12.001.184.014" fill="#020b1e"/><path d="m8.625 10.711.469.023v.023a3 3 0 0 1-.422.023v-.047z" fill="#212629"/><path d="M18.375 9.984c.055.055.064.093.085.167l.019.065.013.05-.117-.023.047-.117-.07-.023z" fill="#a4abb1"/><path d="m14.625 13.688.07.047c.009.08.015.138-.026.209-.062.035-.114.03-.185.025.056-.068.101-.082.188-.094z" fill="#081d30"/><path d="m6.469 12.656.038.02q.094.046.19.089l.07.032.053.023v.023a.57.57 0 0 1-.352-.141z" fill="#4085af"/><path d="M5.719 12.656h.563v.023l-.042.002-.187.008-.065.003-.063.003-.058.003a1 1 0 0 0-.147.028z" fill="#396788"/><path d="M4.219 11.484v.07a3 3 0 0 1-.141.094l-.047.047c0-.094 0-.094.047-.164.051-.03.081-.047.141-.047" fill="#3b82af"/><path d="M17.109 7.031c.061.025.089.039.123.097l.018.044h-.047l-.023.047h-.023l-.023.047-.023-.023v-.117l-.023-.047z" fill="#aebdc6"/><path d="M3.398 15.188a2 2 0 0 1 .098.166l.026.049.017.042-.023.047c-.113-.09-.113-.09-.125-.167q.001-.069.008-.138" fill="#dadbda"/><path d="m16.852 12.703.023.047a.43.43 0 0 1-.281.07c.059-.073.087-.092.182-.111z" fill="#4082ae"/><path d="M5.086 9.727c.027.093.036.162-.009.252l-.038.052h-.047a1 1 0 0 1 .094-.305" fill="#9ca8af"/><path d="m5.414 8.883.07.023-.047.188H5.39l-.023.047c-.027-.08-.02-.094.01-.168l.02-.051z" fill="#a5b1ba"/><path d="M19.711 14.719c.047.094.047.094.047.141h-.047l.006.076c-.006.087-.006.087-.1.181z" fill="#091f32"/><path d="m5.813 10.805.185-.001.053-.001c.132-.001.132-.001.184.026v.047l-.422-.047z" fill="#4188b6"/><path d="m10.031 10.734.188.023-.023.047h-.398v-.023l.234-.023z" fill="#bbc3c6"/><path d="M19.031 10.5a.5.5 0 0 1 .094.164l-.047.023v-.047l-.117.023c-.004-.056-.004-.056 0-.117z" fill="#171618"/><path d="M19.688 9.352c.056.047.056.047.094.094-.07.023-.07.023-.141 0v-.07l-.056.035c-.062.034-.062.034-.108.034v-.047c.082-.055.115-.059.211-.047" fill="#222"/><path d="m5.906 7.43.023.07.047.023-.07.164c-.037-.026-.037-.026-.07-.07.005-.085.009-.126.07-.188" fill="#0b0f13"/><path d="M3.656 14.742h.023l.094.375c-.047-.023-.047-.023-.07-.094L3.656 15z" fill="#0b2139"/><path d="M7.008 14.508c.023.047.023.047.022.089-.034.08-.094.116-.163.168l-.023-.07c.034-.048.034-.048.081-.098l.047-.051z" fill="#3b7498"/><path d="M7.219 14.063h.023l.001.114.001.064c-.002.056-.002.056-.025.103l-.07-.023z" fill="#3c7ba2"/><path d="M6.727 12.891c.124.033.182.114.258.211h-.07l-.023-.047-.057-.032a.22.22 0 0 1-.107-.132" fill="#020e21"/><path d="M16.969 12.727v.047a1 1 0 0 1-.305.094.37.37 0 0 1 .305-.141" fill="#05182b"/><path d="M18 10.336v.094l-.054-.013c-.065-.016-.065-.016-.133.013l-.07-.07c.088-.013.169-.023.258-.023" fill="#1c2325"/><path d="M18.234 9.633c.056.056.063.086.07.164l-.047.07v.047h-.047l-.023-.07.023-.045c.029-.059.019-.081 0-.142z" fill="#afbbc2"/><path d="M7.289 13.688h.023l.004.195.002.056.001.054.001.049c-.01.057-.035.078-.078.115v-.117l.023-.023q.009-.082.013-.166l.006-.092z" fill="#3988b8"/><path d="M18.352 13.359c.07.105.094.202.094.328h-.047a1 1 0 0 1-.047-.328" fill="#06182d"/><path d="m17.766 13.195.164.141-.023.047c-.045-.007-.045-.007-.094-.023l-.023-.07-.07-.023z" fill="#f2f2f2"/><path d="m17.836 12.727.234.07v.047a.2.2 0 0 1-.157.007l-.054-.031z" fill="#3c86b6"/><path d="m6.188 12.633.281.023v.047l.07.023c-.074.037-.126.003-.202-.022l-.084-.027-.065-.021z" fill="#41789c"/><path d="M4.406 11.109h.047c-.046.184-.046.184-.117.258h-.047v.047h-.047a1.3 1.3 0 0 1 .094-.164h.047z" fill="#3a83b4"/><path d="m6.609 10.875.305.023a.4.4 0 0 1-.258.047l-.047-.023z" fill="#39789c"/><path d="M19.617 14.813a.27.27 0 0 1 0 .188h-.047v.141h-.023l-.004-.111-.002-.063c.008-.071.03-.102.077-.154" fill="#3386b7"/><path d="M18.375 14.32h.023c.005.087.004.112-.047.188l-.023.05c-.023.044-.023.044-.07.067l.047-.211h.047z" fill="#398bc0"/><path d="m6.797 14.156.07.047-.047.023-.032.054a.7.7 0 0 1-.132.157l-.047-.023.035-.044.046-.058.045-.058c.039-.048.039-.048.062-.098" fill="#222221"/><path d="M17.391 12.68a.84.84 0 0 1 .375.07c-.101.031-.178.015-.281 0v-.047z" fill="#031527"/><path d="m3.984 11.039.047.07h-.047v.047h.047c-.023.047-.023.047-.094.094l-.047-.07z" fill="#1b1b1b"/><path d="m5.719 8.109.047.047.047-.023v.094c-.059.053-.059.053-.117.094-.029-.088-.009-.126.023-.211" fill="#a8b4bb"/><path d="m19.313 15.492.07.047-.141.164-.023-.094c.045-.064.045-.064.094-.117" fill="#427395"/><path d="M3.773 15.141a.3.3 0 0 1 .085.144l.019.051.014.039h-.094l-.025-.091-.014-.051c-.008-.045-.008-.045.015-.092" fill="#051729"/><path d="m16.359 14.625.047.023v.07l.117.023-.07.07-.07-.023v-.094h-.047z" fill="#3386bb"/><path d="M19.828 11.648h.07v.047h.047l.023.211a.9.9 0 0 1-.141-.258" fill="#dfe0e0"/><path d="M4.664 10.594h.047l-.047.117h-.07l-.023.094-.047-.047.094-.117h.047z" fill="#02091a"/><path d="m6.047 10.43.281.023c-.075.05-.094.052-.18.05l-.057-.001-.044-.002z" fill="#13191e"/><path d="m18.82 10.125.023.047.188-.023v.047c-.124.052-.124.052-.208.026l-.05-.027.047-.023z" fill="#2e2e2e"/><path d="M6.07 7.266h.023c.015.079.015.079.023.164l-.047.047-.07-.023c.044-.135.044-.135.07-.188" fill="#a7b5ba"/><path d="m4.313 15.844.211.141c-.064.032-.097.02-.164 0-.047-.07-.047-.07-.047-.141" fill="#04172a"/><path d="M19.641 12.094h.047c.047.097.051.175.047.281a.4.4 0 0 1-.073-.18l-.012-.057z" fill="#051a2e"/><path d="m6.586 6.586.07.023a1 1 0 0 1-.188.164c.013-.089.052-.128.117-.188" fill="#181c21"/><path d="m19.266 15.492.047.023-.094.117h-.047l-.047.094c.01-.113.058-.16.141-.234" fill="#3488b9"/><path d="M19.477 15.375h.023c.006.054.006.054 0 .117-.047.042-.047.042-.094.07l-.047-.023.057-.082.032-.046z" fill="#021023"/><path d="m16.383 14.555.117.117-.023.047h-.07c-.025-.056-.025-.056-.047-.117z" fill="#38759d"/><path d="m6.516 14.484.07.047h-.07l-.023.07h-.094l-.023-.047z" fill="#171716"/><path d="m19.195 11.391.117.023.047.211a1.6 1.6 0 0 1-.164-.234" fill="#05192e"/><path d="m7.102 10.5.023.07c-.201.007-.201.007-.281-.047.086-.028.168-.025.258-.023" fill="#95a1a4"/><path d="M19.406 9.492h.047l-.023.234-.023-.094-.047-.023z" fill="#cacaca"/><path d="M18.234 8.625a.4.4 0 0 1 .07.164h-.047l-.023.047c-.032-.064-.026-.117-.023-.188z" fill="#202020"/><path d="m5.789 7.922.07.094-.047.094h-.07z" fill="#a4b0b7"/><path d="M3.891 15.375c.061.059.115.118.164.188l-.023.047c-.079-.052-.113-.076-.136-.17z" fill="#0a243c"/><path d="m16.5 14.648.117.023.023.07.047.023-.023.047-.082-.056-.046-.031-.036-.029z" fill="#081a2b"/><path d="m3.633 11.531.047.094c-.111.114-.111.114-.164.141.031-.084.069-.158.117-.234" fill="#1e1e1e"/><path d="M18.797 10.828c.059.046.07.07.086.145l.008.066-.094-.047z" fill="#3c80a9"/><path d="m18.259 10.194.069.001-.07.023v.047h.117v.023c-.079.004-.079.004-.164 0l-.047-.07c.023-.023.023-.023.095-.025" fill="#adb8c2"/><path d="m16.641 6.563.094.047c-.023.07-.023.07-.094.117-.024-.073-.022-.094 0-.164" fill="#b3bfc7"/><path d="M16.852 6.586a1 1 0 0 1 .07.094l-.047.07-.141-.117c.07-.047.07-.047.117-.047" fill="#1d2124"/><path d="M20.016 15.023h.023c.019.076.019.076.023.164-.057.057-.057.057-.117.094z" fill="#c1c1c1"/><path d="M19.664 14.625h.07c-.007.067-.007.067-.023.141l-.07.047z" fill="#4081ad"/><path d="m4.969 14.273.07.023.023.141-.07-.023z" fill="#4086b6"/><path d="M19.5 11.813c.094.047.094.047.125.104.016.06.016.06-.008.13z" fill="#021224"/><path d="M4.289 11.133h.07a.4.4 0 0 1-.117.188c0-.075.017-.119.047-.188" fill="#021023"/><path d="M18.07 9.07h.07c.003.067.003.067 0 .141l-.047.047-.047-.164z" fill="#090e11"/><path d="m6.211 7.055.047.047-.045.054c-.052.06-.052.06-.072.133l-.047-.023a.7.7 0 0 1 .117-.211" fill="#a6afb6"/><path d="M7.5 6.234h.211c-.047.07-.047.07-.12.086l-.068.008.023-.047z" fill="#a1adb5"/><path d="M4.711 16.031h.141l.023.07h-.141z" fill="#3c85b7"/><path d="M3.938 15.539a.5.5 0 0 1 .188.141c-.133-.035-.133-.035-.173-.097z" fill="#030b19"/><path d="M6.82 14.742c-.135.094-.135.094-.188.094v-.07c.072-.044.108-.052.188-.023" fill="#03192b"/><path d="M17.648 12.68c.074.016.141.041.211.07v.047c-.158-.038-.158-.038-.211-.117" fill="#477da4"/><path d="M19.359 11.602c.044.004.044.004.094.023.029.06.029.06.047.117l-.047.023z" fill="#020a15"/><path d="M19.195 11.461h.047v.164l-.07-.023c-.016-.048-.016-.048-.023-.094h.047z" fill="#3287bf"/><path d="M19.031 11.18a.34.34 0 0 1 .117.164h-.117z" fill="#3a749d"/><path d="M4.313 9.938q.059.01.117.023l-.023.117-.117-.117z" fill="#e4e4e4"/><path d="M4.5 18.117c.067-.003.067-.003.141 0l.047.047-.023.047a2 2 0 0 1-.141-.047z" fill="#2c2c2c"/><path d="m19.172 17.695.047.094-.117.117z" fill="#d0d0d0"/><path d="m3.82 15.141.023.07h.047l.023.164c-.061-.031-.063-.055-.085-.119l-.019-.052-.014-.04z" fill="#427ba1"/><path d="M5.531 14.883c.069.009.069.009.141.023l.023.047h-.164z" fill="#4183b3"/><path d="m7.031 14.578.023.07c-.033.053-.075.094-.117.141l-.023-.07.047-.07h.047z" fill="#3186bd"/><path d="m19.125 10.477.047.023-.047.141c-.035-.031-.035-.031-.07-.07v-.07z" fill="#dfe0da"/><path d="m17.813 8.695.094.023.023.117h-.07v-.047h-.047z" fill="#a9b3bb"/><path d="M5.859 6.914a.4.4 0 0 1-.094.164l-.023-.141c.07-.023.07-.023.117-.023" fill="#ebebeb"/><path d="M6.398 6.82a.25.25 0 0 1-.117.141l-.023-.07c.062-.07.062-.07.141-.07" fill="#161a20"/><path d="m6.938 6.422.07.023v.047l-.141.023.023-.07z" fill="#aab2ba"/><path d="M16.734 6.117c.07.023.07.023.117.094l-.047.023c-.062-.034-.062-.034-.117-.07z" fill="#e3e3e3"/></svg>