<svg width="96" height="97" viewBox="0 0 96 97" fill="none" xmlns="http://www.w3.org/2000/svg">
<path d="M70.1065 10.6192C54.0897 10.1411 50.924 24.543 50.6198 34.5909C49.7867 34.4316 48.9246 34.3446 48.0336 34.3446C46.4543 34.3446 44.9548 34.6127 43.535 35.098C42.4266 34.0259 41.8978 32.6132 41.7602 30.8963C41.3183 25.9411 49.1202 22.5507 49.3375 15.3208C49.5911 7.78665 45.9256 1.9549 36.8776 0.346642C28.6555 -1.10948 11.3347 1.07832 10.6175 25.5861C10.1466 41.6035 24.5479 44.7838 34.6028 45.0663C34.3783 46.0516 34.2406 47.073 34.2406 48.1307C34.2406 49.7897 34.5448 51.369 35.1026 52.8468C34.016 53.9552 32.6035 54.4768 30.8794 54.6362C25.9389 55.0853 22.5486 47.2686 15.3044 47.0368C7.785 46.7978 1.95333 50.4779 0.345128 59.5262C-1.10371 67.7268 1.06236 85.0482 25.5766 85.7799C41.7094 86.258 44.8171 71.646 45.0634 61.5908C46.0341 61.7937 47.0049 61.9168 48.0336 61.9168C49.4534 61.9168 50.837 61.6995 52.1409 61.2938C53.2565 62.366 53.7853 63.7859 53.923 65.5028C54.3939 70.458 46.5629 73.8556 46.3384 81.0783C46.0921 88.6124 49.7866 94.4442 58.8055 96.0524C67.0204 97.5086 84.3485 95.3207 85.0657 70.8129C85.5365 54.9694 71.4612 51.6805 61.4135 51.34C61.6671 50.3113 61.8047 49.2391 61.8047 48.1307C61.8047 46.4065 61.5005 44.7693 60.9137 43.248C61.9424 42.3497 63.2462 41.9078 64.8037 41.7629C69.7443 41.3137 73.1273 49.1304 80.3787 49.3623C87.8982 49.6013 93.7298 45.9212 95.338 36.8802C96.8086 28.6722 94.6136 11.3509 70.1065 10.6192ZM47.8379 51.8471C45.8458 51.8471 44.2014 50.2171 44.2014 48.1959C44.2014 46.1892 45.8458 44.5447 47.8379 44.5447C49.8663 44.5447 51.5035 46.1892 51.5035 48.1959C51.5035 50.2171 49.8663 51.8471 47.8379 51.8471Z" fill="#FEFEFE"/>
</svg>
