<svg width="120" height="115" viewBox="0 0 120 115" fill="none" xmlns="http://www.w3.org/2000/svg">
<path d="M59.7136 99.3497C67.9719 99.3497 74.6945 92.627 74.6945 84.3611C74.6945 77.8991 70.5726 72.3933 64.8208 70.2997V63.8087H78.5919C81.3012 63.8087 83.5034 61.5992 83.5034 58.8898C83.5034 56.1804 81.3012 53.978 78.5919 53.978H64.8208V45.7991H78.5919C81.3012 45.7991 83.5034 43.5969 83.5034 40.8874C83.5034 38.178 81.3012 35.9685 78.5919 35.9685H64.8208V27.7968H78.5919C81.3012 27.7968 83.5034 25.5945 83.5034 22.8779C83.5034 20.1685 81.3012 17.9662 78.5919 17.9662H64.8208V5.10734C64.8208 2.28927 62.5243 0 59.7136 0C56.8956 0 54.6065 2.28927 54.6065 5.10734V70.2997C48.8546 72.3933 44.7327 77.8991 44.7327 84.3611C44.7327 92.627 51.4552 99.3497 59.7136 99.3497Z" fill="#4B76B9"/>
<path d="M116.24 83.4918C114.929 83.4918 114.407 83.0499 113.089 81.7894C111.553 80.3115 109.235 78.0875 104.982 78.0875C100.73 78.0875 98.4119 80.3115 96.8834 81.7894C95.5577 83.0499 95.0362 83.4918 93.7322 83.4918C92.4283 83.4918 91.8994 83.0499 90.5882 81.7894C89.0525 80.3115 86.7343 78.0875 82.482 78.0875C80.5116 78.0875 78.9106 79.6885 78.9106 81.6662C78.9106 83.6367 80.5116 85.245 82.482 85.245C83.7932 85.245 84.3148 85.6796 85.626 86.9474C87.1618 88.418 89.4799 90.642 93.7322 90.642C97.9845 90.642 100.303 88.418 101.831 86.9474C103.15 85.6796 103.678 85.245 104.982 85.245C106.294 85.245 106.815 85.6796 108.134 86.9474C109.669 88.418 111.988 90.642 116.24 90.642C118.21 90.642 119.811 89.041 119.811 87.0705C119.811 85.0928 118.21 83.4918 116.24 83.4918Z" fill="#4B76B9"/>
<path d="M22.9206 86.9474C24.239 85.6796 24.7606 85.245 26.0717 85.245C27.3757 85.245 27.8973 85.6796 29.223 86.9474C30.7515 88.418 33.0696 90.642 37.322 90.642C39.2996 90.642 40.9006 89.041 40.9006 87.0705C40.9006 85.0928 39.2996 83.4918 37.322 83.4918C36.018 83.4918 35.4892 83.0499 34.1707 81.7894C32.6422 80.3115 30.3241 78.0875 26.0717 78.0875C21.8194 78.0875 19.5013 80.3115 17.9655 81.7894C16.6471 83.0499 16.1255 83.4918 14.8143 83.4918C13.5104 83.4918 12.9888 83.0499 11.6703 81.7894C10.1346 80.3115 7.82369 78.0875 3.57137 78.0875C1.60096 78.0875 0 79.6885 0 81.6662C0 83.6367 1.60096 85.245 3.57137 85.245C4.87532 85.245 5.39692 85.6796 6.71536 86.9474C8.25112 88.418 10.5692 90.642 14.8143 90.642C19.0667 90.642 21.3848 88.418 22.9206 86.9474Z" fill="#4B76B9"/>
<path d="M101.976 102.516C97.8976 102.516 95.6808 104.638 94.2175 106.051C93.0005 107.217 92.5586 107.587 91.4068 107.587C90.255 107.587 89.8131 107.217 88.5961 106.051C87.1327 104.638 84.916 102.516 80.8303 102.516C76.7519 102.516 74.5351 104.645 73.0718 106.051C71.8548 107.217 71.4129 107.587 70.2683 107.587C69.1165 107.587 68.6819 107.217 67.4648 106.051C65.9943 104.638 63.7776 102.516 59.6991 102.516C55.6207 102.516 53.4039 104.645 51.9406 106.051C50.7236 107.217 50.2817 107.587 49.1371 107.587C47.9853 107.587 47.5507 107.217 46.3336 106.051C44.8703 104.645 42.6536 102.516 38.5751 102.516C34.4967 102.516 32.28 104.645 30.8167 106.051C29.5996 107.217 29.1577 107.587 28.0131 107.587C26.8686 107.587 26.4267 107.217 25.2024 106.051C23.7391 104.645 21.5296 102.516 17.4439 102.516C15.4735 102.516 13.8726 104.117 13.8726 106.094C13.8726 108.065 15.4735 109.666 17.4439 109.666C18.5957 109.666 19.0304 110.035 20.2547 111.209C21.718 112.614 23.9274 114.737 28.0131 114.737C32.0916 114.737 34.3011 112.614 35.7716 111.209C36.9887 110.035 37.4233 109.666 38.5751 109.666C39.7197 109.666 40.1616 110.035 41.3786 111.209C42.8419 112.614 45.0587 114.737 49.1371 114.737C53.2156 114.737 55.4323 112.614 56.8956 111.209C58.1127 110.035 58.5473 109.666 59.6991 109.666C60.8509 109.666 61.2928 110.035 62.5026 111.209C63.9732 112.614 66.1899 114.737 70.2683 114.737C74.3468 114.737 76.5635 112.614 78.0268 111.209C79.2439 110.035 79.6858 109.666 80.8303 109.666C81.9822 109.666 82.4241 110.035 83.6483 111.209C85.1116 112.614 87.3283 114.737 91.4068 114.737C95.4853 114.737 97.702 112.614 99.1653 111.209C100.39 110.035 100.831 109.666 101.976 109.666C103.954 109.666 105.555 108.065 105.555 106.094C105.555 104.117 103.954 102.516 101.976 102.516Z" fill="#4B76B9"/>
</svg>
