<svg width="164" height="164" viewBox="0 0 164 164" fill="none" xmlns="http://www.w3.org/2000/svg">
<path d="M70.5848 26.587L5.97402 127.11L6.00302 127.118C-2.11045 135.651 -2.00904 149.133 6.36523 157.508C14.7323 165.875 28.2136 165.977 36.7473 157.863L36.7543 157.892L136.029 94.0759C140.882 91.7287 145.439 88.5484 149.488 84.5132C168.816 65.1779 168.823 33.8386 149.488 14.4961C130.154 -4.83202 98.8081 -4.83202 79.4734 14.4961C75.8151 18.1545 72.8594 22.2403 70.5848 26.587ZM14.551 149.329C10.5595 145.337 10.5595 138.882 14.551 134.898C18.5353 130.914 24.9825 130.914 28.9668 134.905C32.9511 138.882 32.9513 145.337 28.9743 149.314C24.9827 153.306 18.5353 153.306 14.551 149.329ZM137.231 26.7536C149.8 39.3227 149.8 59.7012 137.238 72.263C124.662 84.832 104.284 84.832 91.7231 72.263C79.1617 59.7012 79.1618 39.3227 91.7305 26.7536C104.285 14.1918 124.663 14.1918 137.231 26.7536ZM79.4734 84.5132C90.3107 95.3436 104.9 100.096 119.048 98.7992L42.7453 147.844C44.7229 140.563 42.8759 132.442 37.153 126.726C31.4228 120.989 23.3018 119.134 16.0214 121.134L65.2312 44.5748C63.8041 58.8246 68.5492 73.5959 79.4734 84.5132Z" fill="#FEFEFE"/>
</svg>
