<svg width="185" height="76" viewBox="0 0 185 76" fill="none" xmlns="http://www.w3.org/2000/svg">
<path d="M183.678 27.0868C185.004 25.2829 184.967 22.7981 183.569 21.0377L173.579 8.40349C172.225 6.69381 169.921 6.05632 167.878 6.83871L102.666 31.7377L91.7494 23.7906C90.9019 23.1676 89.8732 22.8343 88.8083 22.8343H74.588V18.1255H77.9493C80.7093 18.1255 82.9478 15.887 82.9478 13.1268V4.99136C82.9478 2.23124 80.7093 0 77.9493 0H58.448C55.688 0 53.4568 2.23124 53.4568 4.99136V13.1268C53.4568 15.887 55.688 18.1255 58.448 18.1255H62.2222V22.8343H41.772V21.2261C41.772 19.2194 40.5694 17.401 38.7149 16.6259L15.6423 6.89664C14.389 6.37504 12.9764 6.37506 11.7232 6.91839C10.4772 7.45448 9.49921 8.47592 9.02834 9.75093L0.320863 32.9765C-0.570169 35.3382 0.451254 37.9896 2.68246 39.156L31.7823 54.3475V70.4083C31.7823 73.1684 34.0207 75.3997 36.7807 75.3997H112.837C114.083 75.3997 115.286 74.936 116.206 74.0957L169.349 25.5437L177.868 28.8037C179.969 29.6006 182.345 28.9051 183.678 27.0868ZM11.2233 32.3462L16.555 18.1255L31.7823 24.5368V43.0752L11.2233 32.3462ZM110.903 65.4169H41.772V32.8171H87.1856L98.9791 41.409C100.341 42.4014 102.123 42.6405 103.695 42.0392L160.04 20.5234L110.903 65.4169Z" fill="#E52A2D"/>
</svg>
