<svg xmlns="http://www.w3.org/2000/svg" viewBox="0 0 24 24" xml:space="preserve" width="24" height="24"><path d="M23.445 1.135c-0.742 -0.742 -1.943 -0.742 -2.685 0l-1.916 1.916c-0.77 -0.399 -1.76 -0.29 -2.428 0.377L9.851 9.993c-0.421 -0.416 -0.978 -0.644 -1.571 -0.644 -0.598 0 -1.159 0.233 -1.582 0.655l-1.007 1.007c-0.307 0.307 -0.307 0.804 0 1.11l1.016 1.016 -1.033 1.033 -0.295 -0.188c-0.366 -0.233 -0.851 -0.125 -1.084 0.24 -0.233 0.366 -0.125 0.851 0.24 1.084l0.002 0.001 -0.514 0.514 -0.295 -0.188c-0.366 -0.233 -0.851 -0.125 -1.084 0.24 -0.233 0.366 -0.125 0.851 0.24 1.084l0.002 0.001 -2.192 2.192C0.246 19.598 0 20.192 0 20.824s0.246 1.226 0.693 1.673l0.695 0.695c0.307 0.307 0.804 0.307 1.11 0 0.307 -0.307 0.307 -0.804 0 -1.11l-0.695 -0.695a0.79 0.79 0 0 1 -0.233 -0.562c0 -0.212 0.083 -0.412 0.233 -0.562l1.365 -1.365c0.008 0.014 0.018 0.028 0.026 0.042a1.861 1.861 0 0 0 -0.133 0.693c0 0.498 0.194 0.965 0.546 1.317s0.82 0.546 1.317 0.546c0.238 0 0.469 -0.045 0.684 -0.13 0.336 0.221 0.729 0.34 1.141 0.34 0.556 0 1.078 -0.216 1.471 -0.609l0.45 -0.45 0.266 0.17a0.781 0.781 0 0 0 0.421 0.123c0.259 0 0.513 -0.128 0.663 -0.364 0.227 -0.357 0.13 -0.826 -0.214 -1.065l0.516 -0.516 0.266 0.17a0.781 0.781 0 0 0 0.421 0.123c0.259 0 0.513 -0.128 0.663 -0.364 0.156 -0.245 0.159 -0.544 0.033 -0.785l0.752 0.752a0.785 0.785 0 0 0 1.11 0l1.007 -1.007c0.869 -0.869 0.872 -2.279 0.011 -3.153l6.565 -6.565c0.656 -0.656 0.781 -1.644 0.377 -2.427L23.445 3.82c0.741 -0.74 0.741 -1.945 0 -2.685M7.11 19.984a0.507 0.507 0 0 1 -0.361 0.149 0.506 0.506 0 0 1 -0.361 -0.149l-1.793 -1.793a0.506 0.506 0 0 1 -0.131 -0.225l2.849 1.815zm1.341 -1.341 -3.072 -1.957L5.893 16.172l3.072 1.957zm1.652 -1.652 -3.072 -1.957 0.785 -0.785 2.515 2.515zm3.362 -0.22 -0.452 0.452 -5.656 -5.656 0.452 -0.452a0.663 0.663 0 0 1 0.472 -0.195c0.178 0 0.346 0.069 0.472 0.195l0.544 0.544 0 0 3.625 3.625 0.544 0.544c0.26 0.26 0.26 0.683 0 0.943m6.576 -9.717 -6.564 6.564 -2.515 -2.515 6.564 -6.564a0.51 0.51 0 0 1 0.722 0l1.793 1.793c0.199 0.199 0.199 0.523 0 0.722m2.294 -4.344 -1.848 1.848 -0.464 -0.464 1.848 -1.848a0.329 0.329 0 0 1 0.465 0c0.128 0.128 0.128 0.337 0 0.465"/></svg>