<svg xmlns="http://www.w3.org/2000/svg" viewBox="0 0 24 24" xml:space="preserve" width="24" height="24">
  <path d="M23.199 11.926C23.172 5.587 19.684.356 15.259.018A6 6 0 0 0 14.8 0H9.2C7.136 0 5.244 1.071 3.78 2.843l.123-.031 2.787-.797a.4.4 0 0 1 .332.052L8 2.719l.978-.652a.4.4 0 0 1 .401-.025l1.394.697a10 10 0 0 0-.469.66l-1.076-.538-1.007.671a.4.4 0 0 1-.444 0l-1.046-.698-2.622.749-1.07.268a12 12 0 0 0-.414.689l.426.349.946.629.978-.652a.4.4 0 0 1 .444 0l.978.652.978-.652a.4.4 0 0 1 .401-.025l1.414.707a15 15 0 0 0-.28.754L7.626 5.66l-1.007.671a.4.4 0 0 1-.444 0l-.978-.652-.975.654a.4.4 0 0 1-.444 0l-1.2-.8-.327-.267a15 15 0 0 0-1.223 3.965l.318-.315L2.514 7.72a.4.4 0 0 1 .284-.12c.102.003.21.042.285.117L4 8.634l.917-.917a.4.4 0 0 1 .566 0l.917.917.917-.917a.4.4 0 0 1 .566 0l.504.504a18 18 0 0 0-.17.927.4.4 0 0 1-.1-.066L7.6 8.565l-.917.917a.4.4 0 0 1-.566 0L5.2 8.565l-.917.918a.4.4 0 0 1-.566 0l-.913-.914-.89.911-1.047 1.037a16 16 0 0 0-.03.398l.57.342 1.315.656.996-.996a.4.4 0 0 1 .566 0l.917.917.917-.917a.4.4 0 0 1 .488-.06l1.399.839a15 15 0 0 0 .007.937l-1.549-.93-.979.98a.4.4 0 0 1-.566 0l-.917-.917-.917.917a.4.4 0 0 1-.462.075l-1.6-.8-.218-.131L.801 12c0 1.39.168 2.725.474 3.968l1.193-1.79a.4.4 0 0 1 .293-.176.4.4 0 0 1 .322.116l.917.917.917-.917a.4.4 0 0 1 .566 0l.917.917.917-.917a.4.4 0 0 1 .566 0l.268.268a18 18 0 0 0 .196 1.205.4.4 0 0 1-.23-.107l-.517-.517-.917.917a.4.4 0 0 1-.566 0l-.917-.917-.917.917a.4.4 0 0 1-.566 0l-.855-.855-1.302 1.952q.246.767.563 1.473l.416-.356.778-.779a.4.4 0 0 1 .566 0l.917.917.917-.917a.4.4 0 0 1 .566 0l.855.855.53-.794a.4.4 0 0 1 .512-.136l.694.347a15 15 0 0 0 .419 1.104l-1.154-.577-.604.906a.4.4 0 0 1-.294.176.4.4 0 0 1-.322-.115l-.917-.917-.917.917a.4.4 0 0 1-.566 0l-.917-.917-.517.517-.6.514c.458.871.999 1.648 1.603 2.313l.513-.257 1.179-.786a.4.4 0 0 1 .444 0l.978.652.978-.652a.4.4 0 0 1 .444 0l.978.652.721-.48a10 10 0 0 0 .465.651l-.966.641a.4.4 0 0 1-.444 0l-.978-.652-.978.652a.4.4 0 0 1-.444 0L6 21.281l-.978.652q-.02.014-.043.025l-.298.149C5.987 23.303 7.537 24 9.2 24h5.6q.207 0 .42-.016l.03-.001c.197-.015.405-.044.633-.086 3.548-.651 6.444-4.455 7.152-9.53.101-.774.156-1.57.163-2.366zm-.955 2.332c-.671 4.806-3.382 8.375-6.663 8.872-.122.019-.246.04-.366.05l-.025-.003a4 4 0 0 1-.348-.049l-.12-.026a5 5 0 0 1-.252-.06l-.132-.039a5 5 0 0 1-.241-.082l-.122-.046a5 5 0 0 1-.273-.121l-.079-.036a5 5 0 0 1-.35-.192l-.041-.026a6 6 0 0 1-.298-.195q-.043-.03-.087-.064a6 6 0 0 1-.335-.262 6 6 0 0 1-.257-.228l-.06-.055a8 8 0 0 1-.914-1.046l-.029-.04a10 10 0 0 1-.256-.369l-.025-.038a11.7 11.7 0 0 1-.984-1.881l-.056-.137a14 14 0 0 1-.253-.678l-.002-.005a15 15 0 0 1-.222-.706l-.002-.006a16 16 0 0 1-.187-.715l-.015-.066a17 17 0 0 1-.149-.707l-.005-.027a17 17 0 0 1-.118-.728l-.018-.131a18 18 0 0 1-.081-.706l-.004-.041a20 20 0 0 1-.051-.74l-.008-.174a19 19 0 0 1-.009-1.313l.008-.175q.007-.188.016-.374l.017-.23q.01-.155.023-.31.013-.138.029-.274l.027-.258.036-.268.034-.256q.02-.13.043-.258.02-.129.042-.256.024-.131.052-.26l.048-.244q.03-.135.062-.269l.052-.225q.034-.136.071-.271l.056-.212q.038-.133.079-.264.03-.104.062-.206l.085-.256q.033-.102.068-.202l.098-.264.067-.179q.055-.137.112-.273l.065-.158.12-.263.07-.154q.061-.127.125-.251l.076-.15q.065-.123.133-.242l.079-.144q.067-.116.138-.228.042-.072.085-.14.071-.11.144-.218l.088-.133q.076-.107.153-.211.044-.062.09-.123.078-.103.16-.201.045-.058.091-.114.083-.098.168-.191l.093-.105q.085-.09.172-.177l.098-.1q.087-.083.176-.162l.102-.094q.09-.077.182-.15l.104-.085q.094-.07.189-.138.052-.039.105-.076.094-.063.19-.121l.111-.07q.096-.056.193-.106.057-.032.115-.062.098-.048.198-.092.058-.028.117-.053.1-.041.2-.076l.12-.045q.1-.031.201-.06.063-.02.126-.036.1-.024.201-.043.066-.015.131-.027.1-.016.202-.027l.126-.016c3.996.333 7.14 5.203 7.166 11.102v.075a19 19 0 0 1-.156 2.262"/>
  <path d="m11.853 7.124-.037-.042-.144-.188c-.549 1.432-.871 3.186-.871 5.106 0 1.91.319 3.656.862 5.083l.176-.192c.82-.809 1.362-2.769 1.362-4.891s-.541-4.081-1.348-4.876"/>
  <path d="M15.6 3.2c-1.429 0-2.69 1.096-3.562 2.857l.396.518C13.386 7.535 14 9.659 14 12c0 2.358-.622 4.496-1.586 5.446l-.404.441c.873 1.794 2.145 2.914 3.59 2.914 2.692 0 4.8-3.865 4.8-8.8S18.292 3.2 15.6 3.2"/>
</svg>
