<svg width="113" height="101" viewBox="0 0 113 101" fill="none" xmlns="http://www.w3.org/2000/svg">
<path d="M109.994 83.0607L66.1591 7.13936C60.6608 -2.37979 51.6708 -2.37979 46.1798 7.13936L2.34535 83.0607C-3.15296 92.5798 1.35289 100.368 12.3423 100.368H100.004C110.986 100.368 115.485 92.5798 109.994 83.0607ZM61.32 84.5892C61.32 86.8205 59.0164 88.6316 56.1695 88.6316C53.3225 88.6316 51.0189 86.8205 51.0189 84.5892V81.9378C51.0189 79.7065 53.3225 77.9027 56.1695 77.9027C59.0164 77.9027 61.32 79.7065 61.32 81.9378V84.5892ZM61.4504 69.8107C61.4504 72.0637 59.0816 73.8965 56.1695 73.8965C53.2501 73.8965 50.8885 72.0637 50.8885 69.8107V26.1632C50.8885 23.9102 53.2501 22.0773 56.1695 22.0773C59.0816 22.0773 61.4504 23.9102 61.4504 26.1632V69.8107Z" fill="#FAB639"/>
</svg>
