<svg width="130" height="82" viewBox="0 0 130 82" fill="none" xmlns="http://www.w3.org/2000/svg">
<path d="M128.028 24.5658C110.599 8.72227 88.055 0 64.5114 0C40.9751 0 18.4022 8.72227 1.00168 24.5658C0.414906 25.1164 0.052782 25.8843 0.00207277 26.6956C-0.0269039 27.4998 0.248275 28.2967 0.806077 28.8979L42.3297 74.5449C43.4743 75.7982 45.4157 75.8924 46.6617 74.755C49.6898 72.0021 53.2395 70.0172 57.1007 68.9015L59.2377 72.2629C58.6292 73.2192 58.2959 74.3421 58.2959 75.5519C58.2959 78.9857 61.0705 81.7748 64.5114 81.7748C67.9524 81.7748 70.7341 78.9857 70.7341 75.5519C70.7341 72.147 68.0103 69.3942 64.6273 69.329L63.7073 67.8656C63.9608 67.8583 64.2362 67.8511 64.5114 67.8511C71.1181 67.8511 77.4494 70.2997 82.361 74.755C82.9478 75.2911 83.694 75.5519 84.4184 75.5519C85.2515 75.5519 86.0845 75.2114 86.693 74.5449L128.224 28.8979C128.774 28.2967 129.057 27.4998 129.028 26.6956C128.97 25.8843 128.608 25.1164 128.028 24.5658ZM84.114 68.264C78.4781 64.026 71.618 61.7223 64.5114 61.7223C62.9829 61.7223 61.4905 61.831 60.0199 62.0338L33.5644 20.1105C32.6444 18.6833 30.7608 18.2559 29.312 19.1542C27.8993 20.0598 27.4574 21.9505 28.3702 23.3849L53.7175 63.5551C50.5808 64.6563 47.6107 66.2356 44.8869 68.264L7.44185 27.0796C23.3718 13.547 43.5251 6.12876 64.5114 6.12876C85.4978 6.12876 105.651 13.547 121.588 27.0796L84.114 68.264Z" fill="#FEFEFE"/>
</svg>
